<svg width="148" height="33" viewBox="0 0 148 33" fill="none" xmlns="http://www.w3.org/2000/svg">
<path d="M0 16.5378H49.1637M49.1637 16.5378C53.7331 13.9565 55.7837 11.9064 58.5282 7.17331C61.0995 11.8444 63.127 13.8875 67.8927 16.5378M49.1637 16.5378C54.1473 19.2571 56.2197 21.3149 58.5282 25.9023C60.6632 21.2951 62.7132 19.2445 67.8927 16.5378M67.8927 16.5378H69.0124M69.0124 16.5378L74 11.5502L78.9876 16.5378L74 21.5254L69.0124 16.5378ZM74 3C77.0855 10.3432 80.0484 13.3081 87.5378 16.5378C80.4404 19.7709 77.5174 22.7728 74 30.0757C71.1206 22.7218 68.1217 19.7653 60.4622 16.5378C68.2201 13.3885 71.1453 10.3977 74 3Z" stroke="#D4A976" stroke-width="2"/>
<path d="M148 16.5378H98.8363M98.8363 16.5378C94.2669 13.9565 92.2163 11.9064 89.4718 7.17331C86.9005 11.8444 84.873 13.8875 80.1073 16.5378M98.8363 16.5378C93.8527 19.2571 91.7803 21.3149 89.4718 25.9023C87.3368 21.2951 85.2868 19.2445 80.1073 16.5378M80.1073 16.5378H78.9876M78.9876 16.5378L74 11.5502L69.0124 16.5378L74 21.5254L78.9876 16.5378ZM74 3C70.9145 10.3432 67.9516 13.3081 60.4622 16.5378C67.5596 19.7709 70.4826 22.7728 74 30.0757C76.8794 22.7218 79.8783 19.7653 87.5378 16.5378C79.7799 13.3885 76.8547 10.3977 74 3Z" stroke="#D4A976" stroke-width="2"/>
</svg>
