<svg width="404" height="423" viewBox="0 0 404 423" fill="none" xmlns="http://www.w3.org/2000/svg">
<ellipse cx="202" cy="211.5" rx="202" ry="211.5" fill="#D4A976"/>
<path d="M258.753 178.033C258.753 174.26 260.877 170.808 264.245 169.107L279.237 161.534C289.214 156.495 301 163.746 301 174.924V295.226C301 300.38 298.354 305.173 293.992 307.919L274.081 320.457C267.422 324.65 258.753 319.865 258.753 311.995V178.033Z" fill="#21201D"/>
<path fill-rule="evenodd" clip-rule="evenodd" d="M103 181.88C103 176.357 107.477 171.88 113 171.88H242.645C248.168 171.88 252.645 176.357 252.645 181.88V324.82C252.645 330.343 248.168 334.82 242.645 334.82H113C107.477 334.82 103 330.343 103 324.82V181.88ZM179.805 303.529L179.659 299.075C179.623 297.994 179.939 296.93 180.559 296.044L182.695 292.992C183.31 292.113 184.315 291.59 185.387 291.59H186.557C187.128 291.59 187.646 291.922 187.884 292.441C188.113 292.939 188.044 293.524 187.705 293.954L184.719 297.746C184.044 298.605 183.676 299.666 183.676 300.759C183.676 301.822 184.024 302.856 184.666 303.702L188.093 308.219C188.362 308.573 188.483 309.017 188.433 309.459C188.333 310.33 187.595 310.988 186.718 310.988H185.785C184.936 310.988 184.133 310.598 183.607 309.93L180.873 306.457C180.214 305.62 179.84 304.594 179.805 303.529ZM170.262 299.757L168.03 308.264C167.702 309.513 168.627 310.74 169.917 310.771L176.616 310.93C177.891 310.96 178.868 309.805 178.628 308.553L175.794 293.786C175.639 292.981 174.964 292.381 174.147 292.321C172.936 292.234 171.983 293.34 172.25 294.524L174.396 304.068C174.587 304.917 173.942 305.723 173.072 305.723C172.322 305.723 171.715 305.115 171.715 304.366V299.944C171.715 299.597 171.473 299.297 171.133 299.223C170.747 299.139 170.363 299.374 170.262 299.757ZM143.63 195.711C140.868 195.711 138.63 197.95 138.63 200.711V283.266C138.63 286.027 140.868 288.266 143.63 288.266H211.506C214.268 288.266 216.506 286.027 216.506 283.266V200.711C216.506 197.95 214.268 195.711 211.506 195.711H143.63ZM172.224 274.132L168.406 275.517L169.17 278.843L181.64 274.132C181.64 274.132 177.568 254.18 176.55 245.59C176.159 242.292 185.632 235.58 190.039 238.939C195.129 242.819 195.892 274.132 195.892 274.132L211.162 266.927C211.162 266.927 205.054 239.77 197.419 234.228C194.511 232.117 192.219 231.141 188.766 231.734C183.931 232.566 175.023 238.939 175.023 238.939L169.17 203.469L153.136 210.12L147.792 212.337L148.555 215.108L154.409 213.999C154.707 214.926 155.054 216.008 155.439 217.211L150.336 219.185L151.538 222.869L156.615 220.905C157.388 223.341 158.24 226.039 159.106 228.809L153.9 230.823L155.102 234.507L160.258 232.513C160.97 234.81 161.672 237.099 162.33 239.274L156.954 241.354L158.156 245.038L163.443 242.993C163.924 244.62 164.428 246.345 164.939 248.116L159.499 250.22L160.701 253.905L166.011 251.851C166.502 253.57 166.991 255.298 167.468 256.989L162.044 259.087L163.246 262.771L168.518 260.732C169.076 262.726 169.601 264.612 170.07 266.305L164.589 268.114L165.631 271.856L171.104 270.049C171.799 272.572 172.224 274.132 172.224 274.132ZM140.63 291.59C139.525 291.59 138.63 292.485 138.63 293.59V308.988C138.63 310.092 139.525 310.988 140.63 310.988H140.702C141.806 310.988 142.702 310.092 142.702 308.988V302.996C142.976 303.144 143.29 303.229 143.624 303.229H145.343C146.414 303.229 147.283 302.36 147.283 301.289C147.283 300.218 146.414 299.349 145.343 299.349H143.624C143.29 299.349 142.976 299.433 142.702 299.582V293.59C142.702 292.485 141.806 291.59 140.702 291.59H140.63ZM149.573 298.239C148.589 298.239 147.792 299.037 147.792 300.021V309.205C147.792 310.188 148.589 310.986 149.573 310.986C150.557 310.986 151.355 310.188 151.355 309.205V300.021C151.355 299.037 150.557 298.239 149.573 298.239ZM147.792 293.37C147.792 292.386 148.589 291.589 149.573 291.589C150.557 291.589 151.355 292.386 151.355 293.37V294.795C151.355 295.779 150.557 296.577 149.573 296.577C148.589 296.577 147.792 295.779 147.792 294.795V293.37ZM159.245 298.241C158.261 298.241 157.463 299.038 157.463 300.022V309.206C157.463 310.19 158.261 310.988 159.245 310.988C160.229 310.988 161.026 310.19 161.026 309.206V300.022C161.026 299.038 160.229 298.241 159.245 298.241ZM152.373 293.59C152.373 292.486 153.268 291.59 154.373 291.59H155.905C155.926 291.59 155.943 291.59 155.964 291.589C156.424 291.576 162.493 291.42 163.825 292.145C165.352 292.976 165.989 294.644 166.116 296.44C166.305 299.119 166.213 305.86 166.153 309.139C166.134 310.169 165.294 310.988 164.264 310.988C163.19 310.988 162.329 310.102 162.356 309.029C162.453 305.153 162.569 296.844 161.789 296.44C160.88 295.968 158.977 296.058 157.587 296.208C156.626 296.312 155.936 297.141 155.936 298.107V301.289V309.206C155.936 310.19 155.138 310.988 154.154 310.988C153.171 310.988 152.373 310.19 152.373 309.206V293.59ZM209.635 298.263C208.651 298.263 207.854 299.061 207.854 300.045V309.229C207.854 310.212 208.651 311.01 209.635 311.01C210.619 311.01 211.417 310.212 211.417 309.229V300.045C211.417 299.061 210.619 298.263 209.635 298.263ZM202.763 293.613C202.763 292.508 203.659 291.613 204.763 291.613H206.296C206.316 291.613 206.333 291.613 206.354 291.612C206.814 291.599 212.884 291.442 214.216 292.167C215.743 292.998 216.379 294.666 216.506 296.462C216.695 299.141 216.603 305.883 216.543 309.162C216.525 310.191 215.684 311.01 214.654 311.01C213.58 311.01 212.72 310.125 212.746 309.051C212.843 305.175 212.959 296.866 212.18 296.462C211.27 295.991 209.367 296.081 207.977 296.231C207.017 296.335 206.326 297.164 206.326 298.129V301.312V309.229C206.326 310.213 205.529 311.01 204.545 311.01C203.561 311.01 202.763 310.213 202.763 309.229V293.613ZM201.745 301.288C201.745 306.644 199.239 310.986 195.128 310.986C191.017 310.986 188.511 306.644 188.511 301.288C188.511 295.931 191.017 291.589 195.128 291.589C199.239 291.589 201.745 295.931 201.745 301.288ZM198.182 301.01C198.182 304.071 197.026 306.552 195.128 306.552C193.231 306.552 192.074 304.071 192.074 301.01C192.074 297.949 193.231 295.468 195.128 295.468C197.026 295.468 198.182 297.949 198.182 301.01Z" fill="#21201D"/>
<path d="M153.756 150.984C154.019 150.875 154.301 150.823 154.585 150.832L180.358 151.626C180.855 151.641 181.329 151.842 181.687 152.188L185.131 155.521C185.504 155.882 186.002 156.083 186.521 156.083H243.52C244.139 156.083 244.723 155.797 245.102 155.307L247.973 151.595C248.352 151.105 248.936 150.818 249.555 150.818H279.015C281.202 150.818 281.802 153.826 279.782 154.665L256.068 164.521C255.824 164.622 255.564 164.674 255.3 164.674H130.839C128.652 164.674 128.052 161.666 130.071 160.827L153.756 150.984Z" fill="#21201D"/>
<path d="M171.084 128.748C167.054 124.889 166.696 118.202 170.289 113.909L214.668 60.8826C218.283 56.5638 224.476 56.361 228.369 60.4341L266.615 100.453C270.398 104.411 270.576 110.924 267.015 115.073L239.859 146.709C238.063 148.802 235.547 149.989 232.907 149.989L196.894 149.989C194.559 149.989 192.299 149.06 190.541 147.376L171.084 128.748Z" fill="#21201D"/>
</svg>
